<svg width="17" height="17" viewBox="0 0 17 17" fill="none" xmlns="http://www.w3.org/2000/svg">
<path d="M13.8333 4.83341V7.32508C13.8333 7.32508 12.175 7.33341 12.1667 7.32508V4.83341H9.66667C9.66667 4.83341 9.675 3.17508 9.66667 3.16675H12.1667V0.666748H13.8333V3.16675H16.3333V4.83341H13.8333ZM11.3333 8.16675V5.66675H8.83333V3.16675H2.16667C1.25 3.16675 0.5 3.91675 0.5 4.83341V14.8334C0.5 15.7501 1.25 16.5001 2.16667 16.5001H12.1667C13.0833 16.5001 13.8333 15.7501 13.8333 14.8334V8.16675H11.3333ZM2.16667 14.8334L4.66667 11.5001L6.33333 14.0001L8.83333 10.6667L12.1667 14.8334H2.16667Z" fill="#A63A50"/>
</svg>
