<svg width="24" height="24" viewBox="0 0 24 24" fill="none" xmlns="http://www.w3.org/2000/svg">
<g opacity="0.6">
<path d="M19.3312 6.0375H15.4875V5.94375C15.4875 5.475 15.1125 5.1 14.6437 5.1H13.9687V4.81875C13.9687 4.35 13.5937 3.975 13.125 3.975H10.875C10.4062 3.975 10.0312 4.35 10.0312 4.81875V5.1H9.35624C8.88749 5.1 8.51249 5.475 8.51249 5.94375V6.0375H4.66874C3.46874 6.0375 2.49374 7.0125 2.49374 8.2125V9.525C2.49374 9.7875 2.69999 9.99375 2.96249 9.99375C3.22499 9.99375 3.43124 9.7875 3.43124 9.525V8.2125C3.43124 7.51875 3.99374 6.975 4.66874 6.975H8.51249V7.33125C8.51249 7.8 8.88749 8.175 9.35624 8.175H14.6625C15.1312 8.175 15.5062 7.8 15.5062 7.33125V6.975H19.35C20.0437 6.975 20.5875 7.5375 20.5875 8.2125V17.8125C20.5875 18.5062 20.025 19.05 19.35 19.05H4.66874C3.97499 19.05 3.43124 18.4875 3.43124 17.8125V12C3.43124 11.7375 3.22499 11.5312 2.96249 11.5312C2.69999 11.5312 2.49374 11.7375 2.49374 12V17.8312C2.49374 19.0312 3.46874 20.0062 4.66874 20.0062H19.3312C20.5312 20.0062 21.5062 19.0312 21.5062 17.8312V8.23125C21.5062 7.03125 20.5312 6.0375 19.3312 6.0375ZM14.55 7.2375H9.44999V6.0375H10.125C10.5937 6.0375 10.9687 5.6625 10.9687 5.19375V4.9125H13.0312V5.19375C13.0312 5.6625 13.4062 6.0375 13.875 6.0375H14.55V7.2375Z" fill="#31293F"/>
<path d="M4.98749 16.875C4.98749 17.1375 5.19374 17.3438 5.45624 17.3438H11.4C11.6625 17.3438 11.8687 17.1375 11.8687 16.875C11.8687 15.45 11.0062 14.2312 9.74999 13.7062C10.2562 13.3125 10.5937 12.6937 10.5937 12C10.5937 10.8 9.61874 9.84375 8.43749 9.84375C7.25624 9.84375 6.26249 10.8 6.26249 12C6.26249 12.6937 6.59999 13.3125 7.10624 13.7062C5.84999 14.2312 4.98749 15.45 4.98749 16.875ZM8.41874 10.7812C9.09374 10.7812 9.63749 11.325 9.63749 12C9.63749 12.675 9.09374 13.2188 8.41874 13.2188C7.74374 13.2188 7.19999 12.675 7.19999 12C7.19999 11.325 7.74374 10.7812 8.41874 10.7812ZM8.41874 14.3812C9.63749 14.3812 10.65 15.2625 10.875 16.4062H5.96249C6.18749 15.2438 7.19999 14.3812 8.41874 14.3812ZM13.0875 14.0625H17.475C17.7375 14.0625 17.9437 13.8562 17.9437 13.5938C17.9437 13.3312 17.7375 13.125 17.475 13.125H13.0875C12.825 13.125 12.6187 13.3312 12.6187 13.5938C12.6187 13.8562 12.825 14.0625 13.0875 14.0625ZM13.0875 11.7375H17.475C17.7375 11.7375 17.9437 11.5312 17.9437 11.2687C17.9437 11.0062 17.7375 10.8 17.475 10.8H13.0875C12.825 10.8 12.6187 11.0062 12.6187 11.2687C12.6187 11.5312 12.825 11.7375 13.0875 11.7375ZM17.5687 15.4313H14.1937C13.9312 15.4313 13.725 15.6375 13.725 15.9C13.725 16.1625 13.9312 16.3688 14.1937 16.3688H17.5687C17.8312 16.3688 18.0375 16.1625 18.0375 15.9C18.0375 15.6563 17.8125 15.4313 17.5687 15.4313Z" fill="#31293F"/>
</g>
</svg>
