<svg width="24" height="24" viewBox="0 0 24 24" fill="none" xmlns="http://www.w3.org/2000/svg">
<g opacity="0.6" clip-path="url(#clip0_12_11)">
<path d="M23.8375 12.4947C24.0628 12.1861 24.053 11.7648 23.813 11.466C20.1831 7.00339 16.2642 4.74023 12.1592 4.74023C5.19826 4.74023 0.363331 11.226 0.162488 11.5003C-0.062848 11.8089 -0.0530508 12.2302 0.186981 12.529C3.81195 16.9966 7.73084 19.2597 11.8359 19.2597C18.7968 19.2597 23.6317 12.774 23.8375 12.4947ZM11.8359 17.5795C8.41664 17.5795 5.08559 15.6984 1.92109 11.9951C3.16044 10.5304 7.09892 6.42046 12.1592 6.42046C15.5784 6.42046 18.9095 8.30152 22.074 12.0049C20.8346 13.4696 16.8961 17.5795 11.8359 17.5795Z" fill="#31293F"/>
<path d="M11.9975 7.73329C9.6462 7.73329 7.73084 9.64865 7.73084 12C7.73084 14.3513 9.6462 16.2667 11.9975 16.2667C14.3489 16.2667 16.2642 14.3513 16.2642 12C16.2642 9.64865 14.3489 7.73329 11.9975 7.73329ZM11.9975 14.5864C10.572 14.5864 9.41106 13.4255 9.41106 12C9.41106 10.5745 10.572 9.41351 11.9975 9.41351C13.423 9.41351 14.584 10.5745 14.584 12C14.584 13.4255 13.423 14.5864 11.9975 14.5864Z" fill="#31293F"/>
</g>
<defs>
<clipPath id="clip0_12_11">
<rect width="24" height="24" fill="white"/>
</clipPath>
</defs>
</svg>
